<?xml version="1.0" encoding="utf-8"?>
<!-- Generator: Adobe Illustrator 19.0.0, SVG Export Plug-In . SVG Version: 6.00 Build 0)  -->
<svg version="1.1" id="Layer_1" xmlns="http://www.w3.org/2000/svg" xmlns:xlink="http://www.w3.org/1999/xlink" x="0px" y="0px"
	 viewBox="-24.2 339.9 318.7 64.5" style="enable-background:new -24.2 339.9 318.7 64.5;" xml:space="preserve">
<style type="text/css">
	.st0{fill:#FFFFFF;}
</style>
<g>
	<g>
		<path class="st0" d="M-24.1,340.7h12.7c6.4,0,8.7,4,8.7,8.4c0,4.7-1.9,7-5.4,7.8v0.1c4.8,0.7,5.1,3.7,5.2,8c0.1,6.4,0.4,7,1.4,7.4
			v0.4h-8.2c-0.6-1.1-0.8-2.9-0.8-6.5c0-5.6-0.8-6.8-3.2-6.8h-2.9v13.3h-7.6v-32.1H-24.1z M-16.5,354.3h2.3c3.1,0,3.9-2.3,3.9-4.2
			c0-2.4-0.9-4.1-3.9-4.1h-2.3V354.3z"/>
		<path class="st0" d="M4.2,340.7h18.6v6.1h-11v6.4h10.4v6.1H11.8v7.3h11.5v6.1H4.2V340.7z"/>
		<path class="st0" d="M42.6,351.9c0-4.7-0.5-6.8-3.1-6.8c-3,0-3.3,2.9-3.3,11.3c0,9.6,0.3,12,3.5,12c2.8,0,3.1-3.2,3.2-8.2h7.3v1.1
			c0,6.9-1.9,12.1-11.3,12.1c-9.7,0-10.5-7.3-10.5-17c0-8.3,0.5-16.5,11.2-16.5c6.7,0,10.3,2.9,10.3,10.5v1.4h-7.3V351.9z"/>
		<path class="st0" d="M61.7,340.7h9.5l8,32.2h-7.8l-1.2-6.1h-7.7l-1.1,6.1h-7.8L61.7,340.7z M66.3,346.6L66.3,346.6l-2.8,14.3H69
			L66.3,346.6z"/>
		<path class="st0" d="M84,340.7h7.6v26.1h11v6.1H84.1v-32.2H84z"/>
		<path class="st0" d="M107.3,340.7h7.6v26.1h11v6.1h-18.5v-32.2H107.3z"/>
		<path class="st0" d="M136.8,363.1v1.1c0,2.4,0.7,4.3,3.3,4.3c2.7,0,3.4-2,3.4-3.8c0-6.9-13.8-3.1-13.8-15.1
			c0-5.1,2.8-9.5,10.6-9.5c7.6,0,10.3,3.8,10.3,8.8v0.8h-7.3c0-1.5-0.2-2.7-0.6-3.4c-0.5-0.8-1.2-1.1-2.3-1.1c-1.9,0-3,1.1-3,3.5
			c0,6.7,13.8,3.3,13.8,14.7c0,7.3-4.1,10.2-11,10.2c-5.5,0-10.6-1.7-10.6-8.4v-2.1H136.8z"/>
		<path class="st0" d="M159.1,340.7h16v2.4H162v11.7h12.2v2.4H162v15.6h-2.9V340.7z"/>
		<path class="st0" d="M180.7,340.7h16v2.4h-13.1v11.7h12.2v2.4h-12.2v13.2h13.5v2.4h-16.4V340.7z"/>
		<path class="st0" d="M203.2,340.7h16v2.4h-13.1v11.7h12.2v2.4h-12.2v13.2h13.5v2.4h-16.4V340.7z"/>
		<path class="st0" d="M225.6,340.7h7.8c9.4,0,11.7,5.6,11.7,16.1s-2.3,16.1-11.7,16.1h-7.8V340.7z M228.4,370.5h4.7
			c6.3,0,9-3.2,9-13.6c0-10.6-2.7-13.7-9-13.7h-4.7V370.5z"/>
	</g>
	<g>
		<path class="st0" d="M92.2,382.6c0,0.2,0,0.4-0.1,0.5c0,0.1-0.1,0.2-0.2,0.2s-0.2,0.1-0.3,0.1c-0.1,0-0.2,0-0.3,0
			c-0.3,0-0.5,0-0.7,0s-0.4,0-0.6,0s-0.4,0-0.7,0c-0.2,0-0.5,0-0.8,0s-0.7,0-1.1,0.1c-0.4,0.1-0.9,0.1-1.3,0.2s-0.8,0.2-1.2,0.3
			c-0.3,0.1-0.6,0.2-0.7,0.3c-0.1,0-0.1,0.1-0.2,0.2c-0.1,0.1-0.1,0.1-0.1,0.2s-0.1,0.2-0.1,0.3s0,0.2,0,0.2
			c-0.1,0.8-0.2,1.6-0.3,2.4c-0.1,0.8-0.2,1.6-0.3,2.3c-0.1,0.8-0.1,1.5-0.2,2.3c-0.1,0.8-0.1,1.5-0.1,2.2c0,0.1,0,0.3,0.1,0.6
			c0,0.3,0.1,0.5,0.1,0.8c0,0.3,0.1,0.5,0.1,0.7c0,0.2,0.1,0.3,0.1,0.3c0,0.1,0,0.3-0.1,0.5c0,0.2-0.1,0.3-0.2,0.4
			c-0.1,0.1-0.2,0.2-0.3,0.3c-0.1,0.1-0.2,0.1-0.4,0.1c-0.1,0-0.2,0-0.3-0.1c-0.1-0.1-0.2-0.1-0.3-0.2c-0.1-0.1-0.2-0.2-0.3-0.3
			c-0.1-0.1-0.1-0.3-0.2-0.4c-0.1-0.2-0.1-0.4-0.1-0.6S81,396,81,395.7c0-0.3,0-0.5,0-0.8s0-0.5,0-0.7c0-0.2,0-0.4,0-0.5
			c0-0.1,0-0.2,0-0.3c0-0.2,0-0.6,0.1-1.1s0.1-1,0.2-1.6c0.1-0.6,0.1-1.2,0.2-1.9c0.1-0.6,0.2-1.2,0.2-1.8c0.1-0.5,0.1-1,0.2-1.3
			c0.1-0.3,0.1-0.5,0.1-0.5c0-0.1,0-0.2-0.1-0.3s-0.1-0.1-0.2-0.1s-0.1,0-0.2,0s-0.1,0-0.1,0c-0.3,0-0.7,0-1.1,0.1s-0.9,0.1-1.4,0.2
			c-0.5,0.1-1,0.1-1.6,0.2c-0.5,0.1-1,0.1-1.5,0.1c-0.1,0-0.2,0-0.3,0c-0.1,0-0.2,0-0.3,0s-0.2-0.1-0.3-0.1s-0.2-0.1-0.3-0.3
			c0-0.1,0-0.2,0-0.3s0-0.2,0-0.4c0-0.1,0.1-0.2,0.2-0.3s0.2-0.2,0.4-0.2c0.3-0.1,0.7-0.1,1.2-0.2s0.9-0.1,1.3-0.1s0.9-0.1,1.3-0.1
			s0.8-0.1,1.1-0.1c0.2,0,0.5-0.1,0.9-0.1s0.7-0.1,1.1-0.1s0.7-0.1,1.1-0.2s0.6-0.1,0.8-0.1c0.4-0.1,0.9-0.2,1.4-0.3
			c0.5-0.1,1-0.2,1.5-0.3s1-0.2,1.5-0.3c0.5-0.1,1-0.1,1.5-0.1c0.1,0,0.1,0,0.3,0c0.1,0,0.3,0,0.4,0s0.3,0,0.5,0.1
			c0.2,0,0.4,0.1,0.5,0.1s0.2,0.1,0.2,0.1s0.1,0.2,0.2,0.2S92.1,382.5,92.2,382.6C92.1,382.7,92.2,382.6,92.2,382.6z"/>
		<path class="st0" d="M108.1,388.2c0,0.1,0,0.3-0.1,0.4s-0.1,0.3-0.2,0.4s-0.2,0.2-0.3,0.3c-0.1,0.1-0.2,0.2-0.3,0.3
			c-0.3,0.2-0.6,0.3-1.1,0.5c-0.5,0.1-1.1,0.2-1.8,0.2c-0.6,0-1.1-0.1-1.7-0.2s-1.1-0.4-1.7-0.7c0.2,0.3,0.3,0.5,0.3,0.8
			s0.1,0.5,0.1,0.9c0,0.6-0.1,1.2-0.4,1.9c-0.3,0.7-0.7,1.3-1.1,1.9c-0.5,0.6-1,1.1-1.5,1.4c-0.3,0.2-0.6,0.4-1,0.6
			c-0.3,0.2-0.7,0.3-1.1,0.4s-0.8,0.2-1.2,0.2c-0.4,0-0.8,0.1-1.2,0.1c-0.3,0-0.6-0.1-0.9-0.3c-0.3-0.2-0.5-0.4-0.7-0.7
			c-0.2-0.3-0.4-0.6-0.5-0.9s-0.2-0.6-0.2-0.8c0-0.6,0.1-1.2,0.2-1.7c0.2-0.6,0.4-1.1,0.7-1.6c0.3-0.5,0.6-1,0.9-1.5
			c0.4-0.5,0.7-1,1.1-1.5c0.2-0.3,0.5-0.5,0.8-0.8c0.3-0.3,0.6-0.5,0.9-0.7c0.3-0.2,0.6-0.4,1-0.5c0.3-0.1,0.6-0.2,0.9-0.2
			c0.2,0,0.4,0,0.6,0.1c0.2,0.1,0.3,0.2,0.5,0.3s0.3,0.3,0.5,0.5s0.3,0.4,0.6,0.6c0.1,0.1,0.3,0.2,0.6,0.3c0.3,0.1,0.7,0.3,1.1,0.4
			c0.4,0.1,0.9,0.2,1.3,0.3c0.5,0.1,0.9,0.1,1.2,0.1c0.4,0,0.7,0,1,0s0.6-0.1,0.9-0.1s0.6-0.1,0.9-0.2c0.3-0.1,0.6-0.2,0.9-0.4
			C108.1,388,108.1,388.1,108.1,388.2z M99.7,390.9c0-0.2,0-0.4,0-0.7c0-0.3-0.1-0.5-0.2-0.8c-0.1-0.2-0.2-0.4-0.4-0.6
			c-0.2-0.2-0.3-0.2-0.6-0.2c-0.3-0.1-0.6-0.3-0.9-0.4c-0.3-0.1-0.4-0.2-0.5-0.2s-0.2,0-0.3,0.1c-0.1,0.1-0.2,0.1-0.3,0.2
			c-0.1,0.1-0.2,0.2-0.3,0.3c-0.1,0.1-0.2,0.3-0.3,0.4c-0.2,0.3-0.4,0.6-0.6,0.8c-0.2,0.2-0.4,0.5-0.5,0.7c-0.2,0.2-0.3,0.5-0.5,0.7
			c-0.2,0.3-0.3,0.5-0.5,0.9c-0.1,0.1-0.1,0.3-0.2,0.5s-0.1,0.4-0.1,0.6c0,0.2-0.1,0.4-0.1,0.6c0,0.2,0,0.4,0,0.5
			c0,0.1,0,0.2,0.1,0.4c0.1,0.1,0.2,0.3,0.3,0.4c0.1,0.1,0.2,0.2,0.4,0.3c0.2,0.1,0.3,0.1,0.4,0.1c0.4,0,0.7,0,1-0.1
			c0.3,0,0.5-0.1,0.7-0.2s0.5-0.2,0.7-0.4c0.2-0.1,0.5-0.3,0.8-0.6c0.1-0.1,0.3-0.2,0.4-0.4c0.1-0.1,0.3-0.3,0.4-0.5
			c0.1-0.2,0.3-0.3,0.4-0.5c0.1-0.2,0.2-0.3,0.4-0.5c0.1-0.1,0.1-0.3,0.2-0.4c0.1-0.1,0.1-0.3,0.1-0.5c0-0.2,0.1-0.3,0.1-0.4
			C99.7,391.1,99.7,391,99.7,390.9z"/>
		<path class="st0" d="M117.4,389.5c0,0.1,0,0.3-0.1,0.4s-0.2,0.3-0.3,0.5c-0.1,0.2-0.2,0.3-0.4,0.5c-0.1,0.2-0.3,0.3-0.4,0.5
			c-0.1,0.1-0.2,0.3-0.4,0.4c-0.1,0.1-0.3,0.3-0.4,0.4c-0.2,0.2-0.3,0.3-0.6,0.6c-0.2,0.2-0.5,0.5-0.8,0.7c-0.3,0.3-0.6,0.5-0.9,0.8
			c-0.3,0.3-0.6,0.6-1,0.8c-0.3,0.3-0.6,0.5-0.9,0.8c-0.3,0.2-0.6,0.5-0.8,0.7c-0.5,0.4-1.1,0.9-1.5,1.3c-0.5,0.4-1,0.7-1.4,1.1
			c-0.9,0.6-1.7,0.9-2.2,0.9c-0.2,0-0.4,0-0.7-0.1c-0.3-0.1-0.4-0.2-0.4-0.4c0-0.5,0.2-0.9,0.5-1.1c0.4-0.3,0.9-0.5,1.7-0.9
			c0.7-0.3,1.3-0.6,1.7-0.9c0.4-0.3,0.6-0.7,0.6-1.2c0-0.2-0.3-0.7-0.8-1.5c-0.3-0.4-0.5-0.7-0.7-1.1c-0.2-0.3-0.4-0.6-0.5-0.9
			c-0.3-0.5-0.4-1.1-0.4-1.7c0-0.5,0.1-1,0.3-1.6c0.1-0.3,0.2-0.6,0.4-0.9c0.2-0.3,0.4-0.6,0.6-0.9s0.5-0.5,0.7-0.6s0.4-0.2,0.6-0.2
			c0.7,0,1,0.4,1,1.2c0,0.3-0.1,0.6-0.3,0.9c-0.1,0.1-0.2,0.3-0.4,0.4c-0.1,0.1-0.3,0.3-0.5,0.5c-0.2,0.2-0.3,0.3-0.5,0.4
			s-0.2,0.2-0.3,0.3c0,0.4,0.1,0.8,0.4,1.4c0.1,0.3,0.3,0.5,0.4,0.8c0.1,0.3,0.4,0.6,0.6,1c0.2,0.3,0.4,0.7,0.5,0.9
			c0.1,0.3,0.3,0.5,0.3,0.6c0,0,0,0,0.1,0s0.3-0.1,0.5-0.2c0.3-0.2,0.6-0.4,0.9-0.6c0.4-0.3,0.7-0.6,1.2-0.9
			c0.4-0.3,0.8-0.7,1.3-1.1c0.4-0.4,0.8-0.7,1.1-1c0.3-0.3,0.6-0.6,0.8-0.8c0.3-0.3,0.4-0.5,0.6-0.6c0.1-0.1,0.2-0.2,0.2-0.2
			c0.1,0,0.1,0,0.2,0.1c0.1,0,0.1,0.1,0.1,0.2c0,0.1,0.1,0.1,0.1,0.2C117.4,389.4,117.4,389.4,117.4,389.5z"/>
		<path class="st0" d="M121.7,395.2c0,0.4-0.1,0.8-0.2,1.1c-0.1,0.4-0.3,0.7-0.5,1c-0.2,0.3-0.5,0.6-0.8,0.9
			c-0.3,0.3-0.6,0.5-0.9,0.7s-0.6,0.4-1,0.5c-0.3,0.1-0.6,0.2-0.9,0.2c-0.4,0-0.6-0.1-0.7-0.2s-0.2-0.4-0.2-0.7
			c0-0.3,0.1-0.5,0.2-0.6s0.3-0.3,0.4-0.4h0.1c0.1,0,0.1,0,0.2,0s0.1,0,0.2,0s0.1,0,0.2,0s0.1,0,0.2,0s0.2-0.1,0.3-0.1
			c0.1,0,0.2-0.1,0.3-0.2c0.1-0.1,0.2-0.1,0.3-0.2c0.3-0.2,0.5-0.5,0.6-0.8c0.1-0.3,0.2-0.6,0.2-0.8c0-0.3-0.1-0.6-0.3-0.8
			s-0.4-0.5-0.7-0.7c-0.3-0.2-0.6-0.5-0.9-0.7c-0.3-0.2-0.6-0.5-0.9-0.8c-0.3-0.3-0.5-0.6-0.7-0.9c-0.2-0.3-0.3-0.6-0.3-1
			c0-0.2,0-0.4,0.1-0.6c0.1-0.2,0.1-0.4,0.2-0.6s0.2-0.4,0.3-0.6c0.1-0.2,0.2-0.4,0.3-0.5c0.2-0.3,0.4-0.5,0.6-0.8
			c0.2-0.2,0.4-0.5,0.6-0.7c0.2-0.2,0.4-0.3,0.6-0.5c0.2-0.1,0.4-0.2,0.6-0.2c0.5,0,0.8,0.3,0.8,0.9c0,0.2-0.1,0.5-0.3,0.7
			c-0.2,0.3-0.4,0.5-0.6,0.8c-0.4,0.3-0.7,0.6-0.9,0.9c-0.3,0.2-0.5,0.5-0.8,0.7c0.2,0.3,0.4,0.5,0.6,0.7c0.2,0.2,0.4,0.4,0.6,0.6
			s0.4,0.4,0.7,0.6c0.3,0.2,0.5,0.4,0.7,0.6c0.2,0.2,0.4,0.4,0.6,0.6c0.2,0.2,0.4,0.4,0.5,0.6c0.2,0.2,0.3,0.4,0.4,0.7
			C121.6,394.9,121.7,394.9,121.7,395.2z"/>
		<path class="st0" d="M145.7,390.3c0,0.2-0.1,0.4-0.2,0.6c-0.1,0.3-0.3,0.6-0.6,0.9c-0.3,0.3-0.5,0.7-0.9,1.1s-0.7,0.8-1,1.2
			c-0.4,0.4-0.9,0.9-1.3,1.3c-0.5,0.4-1,0.8-1.5,1.2c-1,0.8-2,1.2-2.8,1.2c-0.9,0-1.6-0.3-2.1-0.9s-0.8-1.4-1-2.2
			c-0.2-0.9-0.3-1.7-0.3-2.7c0-0.4,0-1,0.1-1.8c0-0.4,0.1-0.8,0.1-1c0-0.2,0.1-0.5,0.1-0.7c0.1-0.4,0.3-0.7,0.7-0.9
			c0.3-0.3,0.7-0.4,1.1-0.4c0.2,0,0.3,0.2,0.3,0.6c0,0.3,0,0.5-0.1,0.9s-0.1,0.6-0.2,1c-0.1,0.6-0.2,1.1-0.2,1.6s-0.1,0.9-0.1,1.2
			c0,0.8,0.1,1.5,0.3,2.3c0.2,0.8,0.6,1.2,1.1,1.2c0.6,0,1.2-0.2,1.9-0.6c0.4-0.2,0.7-0.4,1.1-0.7c0.4-0.3,0.7-0.5,1.1-0.9
			c0.4-0.3,0.7-0.6,1.1-0.9c0.3-0.3,0.7-0.6,1-1s0.6-0.7,0.9-0.9c0.3-0.3,0.5-0.6,0.7-0.8c0,0,0,0,0-0.1c0,0,0-0.1,0.1-0.1
			c0,0,0-0.1,0.1-0.1c0,0,0,0,0.1,0s0.2,0.1,0.2,0.2C145.6,390.1,145.7,390.2,145.7,390.3z M138.3,381.2c0,0.5-0.1,0.9-0.4,1.2
			c-0.2,0.3-0.6,0.5-1.1,0.5c-0.3,0-0.6,0-1-0.1c-0.4-0.1-0.5-0.2-0.5-0.4c0-0.4,0.1-0.7,0.3-1c0.2-0.3,0.5-0.6,0.8-0.8
			c0.3-0.1,0.4-0.2,0.5-0.2c0.4,0,0.8,0.1,1,0.2C138.2,380.6,138.3,380.8,138.3,381.2z"/>
		<path class="st0" d="M154.2,387.3c0,0.2,0,0.4-0.1,0.5c-0.1,0.1-0.2,0.2-0.3,0.3c-0.1,0.1-0.3,0.1-0.4,0.1s-0.3,0-0.4,0
			c-0.6,0-1.3,0.1-1.9,0.2c-0.7,0.1-1.3,0.1-1.8,0.2c-0.5,0.1-1,0.1-1.3,0.2s-0.5,0.1-0.5,0.1c-0.1,0.2-0.1,0.5-0.2,0.8
			c-0.1,0.3-0.2,0.7-0.3,1c-0.1,0.4-0.2,0.8-0.3,1.1c-0.1,0.4-0.2,0.8-0.2,1.1c-0.1,0.4-0.1,0.7-0.2,1c0,0.3-0.1,0.5-0.1,0.7
			c0,0.2,0,0.3,0,0.6s0.1,0.4,0.2,0.6c0.1,0.2,0.2,0.4,0.4,0.5c0.2,0.1,0.4,0.2,0.7,0.2c0.2,0,0.3,0,0.6-0.1
			c0.3-0.1,0.5-0.2,0.7-0.4c0.2-0.2,0.6-0.4,0.8-0.6c0.3-0.2,0.6-0.5,0.9-0.8c0.1-0.1,0.3-0.3,0.5-0.4s0.4-0.2,0.5-0.2
			c0.3,0,0.4,0.1,0.4,0.4c0,0.1,0,0.3-0.1,0.4c0,0.1-0.1,0.2-0.2,0.4c-0.1,0.1-0.2,0.2-0.3,0.4c-0.1,0.1-0.2,0.3-0.3,0.4
			c-0.1,0.1-0.2,0.2-0.3,0.4c-0.1,0.2-0.3,0.3-0.5,0.5c-0.2,0.2-0.4,0.4-0.7,0.5c-0.3,0.2-0.5,0.3-0.8,0.5c-0.3,0.1-0.6,0.3-0.9,0.4
			s-0.6,0.1-0.9,0.1c-0.4,0-0.8-0.1-1.1-0.2s-0.5-0.3-0.7-0.5c-0.2-0.2-0.3-0.4-0.4-0.7c-0.1-0.3-0.2-0.5-0.2-0.8
			c0-0.3-0.1-0.5-0.1-0.8c0-0.3,0-0.5,0-0.7c0-0.2,0-0.5,0.1-0.8c0-0.3,0.1-0.7,0.2-1c0.1-0.4,0.1-0.7,0.2-1.1s0.2-0.7,0.2-1.1
			s0.1-0.6,0.2-0.9c0-0.3,0.1-0.5,0.1-0.7c0-0.1,0-0.2-0.1-0.2s-0.2,0-0.4,0s-0.3,0-0.5,0.1c-0.2,0.1-0.4,0-0.6,0
			c-0.1,0-0.3-0.1-0.4-0.1s-0.2-0.1-0.3-0.2c-0.1-0.1-0.2-0.2-0.2-0.3c-0.1-0.1-0.1-0.3-0.1-0.5s0.1-0.4,0.2-0.5s0.3-0.1,0.4-0.1
			h2.6c0,0,0.1-0.1,0.2-0.2s0.1-0.3,0.2-0.5c0.1-0.2,0.2-0.4,0.3-0.7c0.1-0.3,0.2-0.5,0.3-0.8c0.1-0.3,0.2-0.6,0.3-0.8
			s0.2-0.6,0.3-0.8c0.1-0.4,0.3-0.7,0.4-0.9c0.1-0.2,0.4-0.3,0.7-0.3c0.2,0,0.3,0,0.4,0.1s0.2,0.1,0.3,0.2c0.1,0.1,0.1,0.2,0.1,0.3
			s0,0.2,0,0.3c0,0,0,0.1-0.1,0.3c0,0.1-0.1,0.3-0.2,0.5c-0.1,0.2-0.2,0.5-0.3,0.7c-0.1,0.2-0.2,0.5-0.3,0.8
			c-0.1,0.3-0.2,0.5-0.3,0.8c-0.1,0.3-0.2,0.5-0.2,0.7c0.7,0,1.3-0.1,1.8-0.1s0.9-0.1,1.2-0.1c0.3,0,0.6-0.1,0.9-0.1s0.5,0,0.7,0
			c0.3,0,0.6,0,0.8,0s0.4,0.1,0.5,0.1c0.1,0.1,0.2,0.1,0.2,0.2C154.2,387.1,154.2,387.2,154.2,387.3z"/>
		<path class="st0" d="M179.2,387.7c0,0.1,0,0.3-0.1,0.4s-0.2,0.3-0.3,0.5c-0.1,0.2-0.3,0.3-0.5,0.4s-0.4,0.3-0.5,0.4
			c-0.2,0.1-0.3,0.2-0.5,0.3c-0.2,0.1-0.3,0.2-0.4,0.2c-0.2,0.1-0.5,0.2-0.8,0.2c-0.3,0.1-0.6,0.1-1,0.2c-0.4,0.1-0.7,0.1-1,0.1
			s-0.6,0-0.8,0c-0.1,0-0.2,0-0.4,0c-0.2,0-0.3-0.1-0.5-0.1s-0.3-0.1-0.5-0.2c-0.1-0.1-0.3-0.1-0.3-0.2c0.1,0.3,0.1,0.6,0.2,0.9
			c0.1,0.3,0.1,0.6,0.1,0.9c0,0.1,0,0.3,0,0.5c0,0.2-0.1,0.4-0.1,0.6c-0.1,0.2-0.1,0.4-0.2,0.6c-0.1,0.2-0.1,0.3-0.2,0.5
			c-0.2,0.3-0.4,0.6-0.6,0.9c-0.2,0.3-0.4,0.5-0.7,0.7c-0.3,0.2-0.5,0.4-0.9,0.6c-0.4,0.2-0.7,0.4-1.1,0.6c-0.4,0.2-0.9,0.3-1.4,0.4
			s-0.9,0.1-1.4,0.1c-0.3,0-0.6-0.1-0.8-0.3s-0.4-0.4-0.6-0.7c-0.2-0.3-0.3-0.7-0.4-1c-0.1-0.3-0.1-0.8-0.1-1.2c0-0.1,0-0.3,0-0.4
			s0-0.3,0.1-0.5c0-0.2,0.1-0.3,0.1-0.5c0-0.2,0.1-0.3,0.1-0.4c0.1-0.3,0.3-0.7,0.4-1.1s0.4-0.8,0.7-1.2c0.3-0.4,0.6-0.8,0.9-1.2
			c0.3-0.4,0.7-0.8,1-1.1c0.4-0.3,0.7-0.6,1.1-0.8c0.4-0.2,0.8-0.3,1.1-0.3c0.1,0,0.2,0,0.3,0.1c0.1,0,0.1,0.1,0.2,0.1
			c0.1,0.1,0.1,0.1,0.2,0.2s0.1,0.1,0.2,0.2l0.1,0.1c0.1,0,0.1,0,0.2,0s0.2,0,0.3,0c0.1,0,0.3,0.1,0.5,0.3c0.2,0.2,0.4,0.4,0.7,0.6
			c0.2,0.2,0.5,0.4,0.7,0.6c0.2,0.2,0.4,0.3,0.6,0.3s0.4,0,0.7,0c0.2,0,0.5,0,0.7,0s0.5,0,0.7-0.1c0.2,0,0.4-0.1,0.6-0.1
			c0.1,0,0.2,0,0.4-0.1c0.2-0.1,0.4-0.1,0.7-0.2c0.3-0.1,0.5-0.1,0.8-0.2c0.3-0.1,0.6-0.2,0.8-0.2c0.2-0.1,0.5-0.1,0.6-0.2
			c0.1-0.1,0.2-0.1,0.3-0.1h0.1C179.2,387.6,179.2,387.7,179.2,387.7z M170.5,389.5c0-0.1-0.1-0.3-0.3-0.4s-0.3-0.3-0.4-0.4
			c-0.2-0.1-0.3-0.2-0.5-0.3s-0.4-0.1-0.5-0.1s-0.3,0-0.4,0.1c-0.1,0-0.3,0.1-0.4,0.2c-0.1,0.1-0.2,0.1-0.4,0.2
			c-0.1,0.1-0.2,0.2-0.3,0.2c-0.3,0.2-0.6,0.6-0.8,1c-0.3,0.4-0.5,0.9-0.7,1.4s-0.4,1-0.5,1.5s-0.2,1-0.2,1.3c0,0.2,0,0.3,0.1,0.5
			c0.1,0.2,0.1,0.3,0.2,0.4c0.1,0.1,0.2,0.2,0.4,0.3c0.1,0.1,0.3,0.1,0.5,0.1c0.4,0,0.9-0.1,1.2-0.2c0.4-0.2,0.7-0.4,1-0.7
			c0.3-0.3,0.6-0.6,0.8-1s0.4-0.8,0.6-1.3s0.3-0.9,0.4-1.4S170.5,390,170.5,389.5z"/>
		<path class="st0" d="M188.1,388.2c0,0.2-0.1,0.4-0.2,0.5c-0.1,0.1-0.3,0.2-0.4,0.2c-0.3,0-0.5,0-0.6-0.1c-0.1-0.1-0.3-0.2-0.4-0.3
			s-0.2-0.2-0.3-0.3s-0.3-0.1-0.5-0.1s-0.4,0.1-0.6,0.2s-0.4,0.3-0.7,0.5c-0.2,0.2-0.4,0.4-0.7,0.6c-0.3,0.2-0.4,0.5-0.6,0.7
			c-0.1,0.2-0.3,0.4-0.5,0.6s-0.3,0.5-0.5,0.7c-0.2,0.3-0.3,0.5-0.5,0.8c-0.1,0.3-0.3,0.5-0.3,0.7c-0.1,0.2-0.1,0.4-0.2,0.6
			c-0.1,0.2-0.2,0.4-0.2,0.6c-0.1,0.2-0.2,0.4-0.2,0.7c0,0.3-0.1,0.4-0.2,0.7c0,0.3-0.1,0.6-0.1,0.9c0,0.3-0.1,0.5-0.1,0.7
			c-0.1,0.2-0.1,0.4-0.2,0.5c-0.1,0.1-0.2,0.2-0.3,0.2c-0.3,0-0.5,0-0.6-0.1c-0.2-0.1-0.3-0.2-0.4-0.3s-0.2-0.3-0.2-0.5
			s-0.1-0.4-0.1-0.6c0-0.3,0-0.6-0.1-0.9s-0.1-0.6-0.1-0.9c0-0.3,0-0.6-0.1-0.9c0-0.3,0-0.7,0-1.1s0-0.8,0-1.3s0.1-0.9,0.1-1.4
			s0.1-0.8,0.1-1.2c0-0.3,0.1-0.6,0.1-0.7c0.1-0.2,0.2-0.4,0.3-0.5c0.1-0.2,0.2-0.3,0.3-0.5c0.1-0.1,0.3-0.2,0.4-0.3
			c0.1-0.1,0.3-0.1,0.4-0.1s0.2,0,0.3,0c0.1,0,0.2,0.1,0.3,0.1c0.1,0.1,0.1,0.2,0.2,0.3s0.1,0.3,0.1,0.4s0,0.2-0.1,0.4
			c-0.1,0.2-0.2,0.5-0.2,0.8s-0.2,0.6-0.3,1s-0.1,0.6-0.2,0.9c0,0.1,0,0.2,0,0.3s0,0.3,0,0.5c0,0.2,0,0.4,0,0.6c0,0.2,0,0.4,0,0.6
			c0,0.1,0,0.3,0,0.4c0,0.1,0,0.2,0,0.3c0.1-0.1,0.1-0.3,0.2-0.5s0.2-0.5,0.3-0.7c0.1-0.3,0.3-0.5,0.4-0.8s0.3-0.5,0.4-0.8
			c0.2-0.3,0.3-0.5,0.6-0.8s0.4-0.6,0.7-0.9c0.2-0.3,0.5-0.6,0.8-0.9c0.3-0.3,0.6-0.5,0.9-0.8s0.6-0.4,0.9-0.5s0.7-0.2,1-0.2
			c0.4,0,0.7,0.1,0.9,0.2c0.3,0.1,0.5,0.3,0.7,0.5s0.3,0.4,0.4,0.6C188,387.7,188.1,388,188.1,388.2z"/>
		<path class="st0" d="M214.9,394.6c0,0.1-0.1,0.3-0.2,0.4s-0.2,0.3-0.4,0.4s-0.3,0.2-0.5,0.3c-0.2,0.1-0.3,0.1-0.4,0.1
			c-0.4,0-1.1-0.2-2-0.5c-0.4-0.2-0.9-0.3-1.4-0.5c-0.5-0.2-0.9-0.4-1.4-0.6c-0.5-0.2-0.9-0.4-1.3-0.6s-0.7-0.3-1-0.5
			c-0.9-0.5-2.2-0.8-3.8-1c-0.1,0.1-0.3,0.2-0.3,0.4s-0.2,0.3-0.2,0.5c0,0.2-0.1,0.4-0.1,0.7c0,0.2,0,0.5,0,0.8c0,0.4,0,0.7,0.1,0.9
			c0.1,0.2,0.2,0.5,0.3,0.8c0.3,0.5,0.4,0.9,0.4,1.1c0,0.2-0.1,0.4-0.4,0.6c-0.3,0.2-0.6,0.3-0.9,0.4c-0.6-0.3-1-0.8-1.2-1.4
			c-0.2-0.6-0.3-1.4-0.3-2.2c0-0.7,0-1.5,0-2.2c0-0.7,0.1-1.4,0.1-2c0-0.6,0.1-1.3,0.1-2c0-0.7,0.1-1.6,0.1-2.6c0-0.2,0-0.4,0-0.7
			s0-0.6,0-0.9c0-0.4,0-0.7,0-0.9s0-0.5,0-0.6c0,0,0-0.1,0-0.2c0-0.1,0-0.1,0-0.2s0-0.2,0-0.2c0-0.1,0-0.1,0-0.2
			c0-0.3,0.1-0.5,0.3-0.7c0.2-0.2,0.4-0.3,0.7-0.3c0.2,0,0.5,0.1,0.7,0.2c0.3,0.1,0.4,0.3,0.4,0.5c0,0.1,0,0.2,0,0.4
			c0,0.1-0.1,0.3-0.1,0.4c0,0.3-0.1,0.6-0.1,0.9c0,0.3,0,0.6-0.1,1c0,0.8-0.1,1.6-0.1,2.5c0,0.9-0.1,1.8-0.1,2.9
			c0,0.2,0,0.3,0.1,0.4c0,0.1,0.1,0.1,0.2,0.1c0.2,0,0.4-0.1,0.7-0.2c0.3-0.2,0.5-0.3,0.8-0.5c1.3-0.8,2.6-1.9,3.8-3.3
			c0.4-0.5,0.8-0.9,1-1.3c0.3-0.4,0.6-0.7,0.8-1c0.1-0.2,0.3-0.3,0.4-0.5c0.2-0.2,0.3-0.3,0.5-0.5s0.3-0.3,0.5-0.5s0.3-0.3,0.4-0.4
			c0,0,0.1-0.1,0.2-0.2c0.1-0.1,0.2-0.1,0.2-0.2c0.1-0.1,0.2-0.1,0.2-0.2c0.1,0,0.1-0.1,0.2-0.1s0.2,0,0.3,0.1
			c0.1,0.1,0.2,0.2,0.3,0.3s0.2,0.2,0.2,0.4c0.1,0.1,0.1,0.2,0.1,0.3c0,0.1,0,0.2-0.1,0.4l-0.2,0.4c-0.1,0.1-0.1,0.2-0.1,0.3
			c0,0.1,0,0.2-0.1,0.2s-0.1,0.1-0.1,0.2c-0.1,0.1-0.1,0.1-0.2,0.2c-0.1,0-0.2,0.1-0.3,0.1s-0.2,0.1-0.3,0.1s-0.2,0.1-0.3,0.1
			s-0.1,0.1-0.2,0.2c-0.3,0.4-0.5,0.7-0.7,1c-0.2,0.3-0.3,0.5-0.4,0.6c-0.5,0.6-1,1.1-1.6,1.7c-0.3,0.3-0.6,0.5-0.8,0.8
			c-0.3,0.2-0.6,0.5-0.8,0.7c-0.3,0.2-0.6,0.4-0.9,0.7c-0.3,0.3-0.7,0.5-1.1,0.8c0.9,0.4,1.8,0.8,2.8,1.2c1,0.4,2.1,0.9,3.3,1.3
			c0.1,0,0.2,0.1,0.3,0.1c0.1,0,0.2,0.1,0.3,0.1c0.1,0,0.2,0.1,0.3,0.1c0.1,0,0.2,0.1,0.3,0.1c0.1,0,0.3,0.1,0.5,0.1s0.3,0,0.5,0
			c0.1,0,0.2,0,0.3,0c0.1,0,0.3,0,0.4-0.1s0.3,0,0.5-0.1s0.3,0,0.5-0.1C214.8,393.9,214.9,394.2,214.9,394.6z"/>
		<path class="st0" d="M228.2,393.6c-0.6,0.5-1.2,0.9-1.9,1.3s-1.3,0.8-2,1.1s-1.3,0.6-2,0.7c-0.6,0.2-1.2,0.3-1.8,0.3
			c-0.6,0-1.1-0.1-1.6-0.3c-0.5-0.2-0.9-0.5-1.2-0.8s-0.6-0.9-0.8-1.4c-0.2-0.6-0.3-1.3-0.3-2.1c0-0.7,0.1-1.4,0.2-2.1
			c0.1-0.7,0.3-1.3,0.6-1.8c0.2-0.6,0.5-1.1,0.8-1.5c0.3-0.5,0.6-0.8,1-1.2s0.7-0.6,1.1-0.7c0.4-0.2,0.7-0.3,1.1-0.3
			s0.7,0.1,0.9,0.2c0.3,0.1,0.5,0.2,0.7,0.4s0.3,0.4,0.4,0.6c0.1,0.2,0.1,0.5,0.1,0.8c0,0.2,0,0.4-0.1,0.7s-0.2,0.6-0.4,0.9
			s-0.5,0.7-0.9,1.2c-0.4,0.4-0.8,0.9-1.4,1.4c-0.2,0.1-0.3,0.3-0.5,0.5c-0.2,0.2-0.4,0.3-0.6,0.5c-0.2,0.1-0.4,0.3-0.6,0.4
			s-0.4,0.3-0.5,0.3c0,0.4,0.1,0.7,0.2,1c0.1,0.3,0.3,0.6,0.5,0.8s0.5,0.4,0.8,0.5s0.8,0.2,1.2,0.2c0.5,0,1.1-0.1,1.7-0.3
			c0.6-0.2,1.2-0.4,1.8-0.7c0.6-0.3,1.2-0.6,1.8-0.9c0.6-0.3,1.1-0.7,1.6-1l0.1-0.1c0.1,0,0.1-0.1,0.1-0.1c0.1,0,0.1,0,0.2,0.1
			c0.1,0.1,0.1,0.2,0.1,0.3c0,0,0,0.1,0,0.2c0,0.1-0.1,0.2-0.1,0.3s-0.1,0.2-0.1,0.2S228.3,393.6,228.2,393.6z M221.9,387.2
			c0-0.3-0.1-0.5-0.2-0.6c-0.1-0.2-0.3-0.2-0.5-0.2c-0.1,0-0.2,0-0.3,0.1c-0.1,0-0.2,0.1-0.3,0.2c-0.1,0.1-0.2,0.2-0.3,0.3
			s-0.2,0.2-0.3,0.3c-0.4,0.5-0.7,1.1-0.9,1.8c-0.2,0.6-0.4,1.4-0.5,2.3c0.6-0.4,1.1-0.9,1.5-1.3s0.8-0.7,1-1.1
			c0.2-0.4,0.5-0.6,0.6-0.9C221.9,387.8,221.9,387.5,221.9,387.2z"/>
		<path class="st0" d="M241.5,389.2c0,0.1-0.1,0.3-0.2,0.6c-0.3,0.5-0.7,1-1.1,1.5s-0.9,1.1-1.5,1.7c-0.5,0.6-1.1,1.1-1.7,1.6
			s-1.2,1-1.9,1.4c-0.6,0.4-1.3,0.7-1.9,0.9c-0.6,0.2-1.2,0.4-1.8,0.4h-0.1c-1.3,0-2.2-0.4-2.9-1.1c-0.7-0.7-1-1.8-1-3.1
			c0-0.5,0-1.1,0.1-1.7s0.2-1.2,0.4-1.8c0.2-0.6,0.5-1.2,0.8-1.8c0.4-0.6,0.8-1.2,1.4-1.7c0.4-0.4,0.8-0.7,1.3-0.9
			c0.5-0.2,0.9-0.3,1.3-0.3c0.1,0,0.1,0,0.2,0s0.2,0.1,0.3,0.1c0.1,0,0.2,0.1,0.3,0.2c0.1,0.1,0.2,0.1,0.2,0.2
			c0.2,0.3,0.4,0.5,0.5,0.8c0.1,0.2,0.1,0.5,0.1,0.9c0,0.4-0.1,0.8-0.2,1.2s-0.3,0.7-0.5,1s-0.5,0.7-0.8,1s-0.7,0.7-1.1,1.1
			c-0.1,0.1-0.3,0.3-0.5,0.4s-0.4,0.3-0.6,0.5s-0.5,0.4-0.7,0.6c-0.2,0.2-0.5,0.4-0.7,0.6c0.1,1.3,0.8,2,2.2,2
			c0.8,0,1.6-0.2,2.5-0.6c0.4-0.2,0.9-0.5,1.2-0.7c0.4-0.3,0.8-0.6,1.1-0.8c0.2-0.1,0.4-0.3,0.6-0.5c0.2-0.2,0.4-0.4,0.7-0.6
			s0.5-0.4,0.7-0.7c0.2-0.3,0.4-0.4,0.6-0.6c0.1-0.1,0.3-0.3,0.4-0.4c0.1-0.1,0.3-0.3,0.5-0.5l0.6-0.6c0.4-0.3,0.6-0.5,0.8-0.5
			C241.4,389,241.5,389,241.5,389.2z M232.8,387.5c0-0.2-0.1-0.4-0.2-0.6c-0.1-0.2-0.3-0.3-0.4-0.3s-0.3,0.1-0.5,0.2
			c-0.2,0.1-0.4,0.3-0.6,0.6c-0.5,0.6-0.8,1.2-1.2,2c-0.3,0.8-0.5,1.7-0.7,2.6c0.5-0.4,0.9-0.7,1.2-1c0.3-0.3,0.6-0.6,0.9-0.8
			c0.2-0.2,0.4-0.4,0.5-0.6c0.1-0.2,0.3-0.4,0.5-0.6c0.1-0.2,0.3-0.5,0.4-0.7C232.8,388.1,232.8,387.7,232.8,387.5z"/>
		<path class="st0" d="M251.8,388.2c0,0.8-0.1,1.6-0.3,2.3c-0.2,0.7-0.5,1.4-0.8,2c-0.4,0.6-0.8,1.2-1.3,1.8
			c-0.5,0.6-1.1,1.1-1.8,1.7c-0.2,0.2-0.5,0.4-0.8,0.6c-0.3,0.2-0.6,0.4-1,0.5s-0.7,0.3-1,0.4s-0.7,0.1-1,0.1c-0.2,0-0.4,0-0.5-0.1
			c-0.1,0-0.3-0.1-0.4-0.2c-0.1-0.1-0.2-0.2-0.3-0.3c-0.1-0.1-0.2-0.3-0.3-0.4c-0.2,0.5-0.3,0.9-0.4,1.3c-0.1,0.3-0.2,0.7-0.3,0.9
			c-0.1,0.2-0.1,0.5-0.2,0.8c0,0.2-0.1,0.5-0.1,0.8c0,0.3-0.1,0.7-0.1,1.1c-0.1,0.4-0.1,0.9-0.2,1.6c0,0.1-0.1,0.3-0.1,0.4
			c0,0.1-0.1,0.3-0.2,0.4c-0.1,0.1-0.2,0.3-0.3,0.4s-0.2,0.1-0.3,0.1c-0.1,0-0.2,0-0.4-0.1c-0.1-0.1-0.3-0.1-0.4-0.2
			s-0.3-0.2-0.3-0.3c-0.1-0.1-0.1-0.2-0.1-0.2c0-0.3,0-0.5,0.1-0.8c0.1-0.3,0.1-0.5,0.2-0.8c0.2-1.2,0.5-2.3,0.7-3.3
			s0.5-2.1,0.7-3.1s0.4-2.1,0.5-3.1c0.1-1.1,0.2-2.3,0.2-3.5c0,0,0-0.1,0-0.2s0-0.2,0-0.3c0-0.1,0-0.2,0-0.3s0-0.2,0-0.2
			c0-0.2,0-0.5,0.1-0.7c0.1-0.2,0.2-0.5,0.3-0.6c0.1-0.2,0.3-0.3,0.4-0.5s0.3-0.2,0.5-0.2c0.1,0,0.2,0,0.2,0.1
			c0.1,0.1,0.2,0.2,0.2,0.3c0.1,0.1,0.1,0.3,0.2,0.5c0.1,0.2,0.1,0.4,0.1,0.7c0,0.4,0,0.8-0.1,1.3s-0.1,1-0.2,1.5s-0.1,1-0.2,1.5
			s-0.1,0.9-0.2,1.2c0.3-0.7,0.6-1.3,1-1.9s0.8-1.2,1.2-1.7s0.8-1,1.3-1.4c0.4-0.4,0.9-0.8,1.3-1c0.4-0.2,0.8-0.5,1.1-0.7
			c0.4-0.2,0.7-0.2,0.9-0.2c0.3,0,0.7,0.1,0.9,0.2c0.3,0.1,0.6,0.3,0.8,0.5c0.2,0.2,0.4,0.5,0.5,0.7
			C251.8,387.6,251.8,387.9,251.8,388.2z M250,389.2c0-0.3,0-0.6-0.1-0.8s-0.2-0.4-0.3-0.5c-0.1-0.1-0.2-0.2-0.3-0.2
			s-0.2-0.1-0.3-0.1c-0.3,0-0.6,0.1-1,0.4s-0.8,0.6-1.2,1c-0.4,0.4-0.8,0.9-1.3,1.5c-0.4,0.5-0.8,1.1-1.2,1.7
			c-0.1,0.1-0.2,0.3-0.4,0.6c-0.1,0.2-0.3,0.5-0.4,0.7c-0.1,0.3-0.3,0.5-0.3,0.7c-0.1,0.2-0.1,0.4-0.1,0.5s0,0.2,0.1,0.3
			s0.1,0.2,0.3,0.3c0.1,0.1,0.3,0.2,0.4,0.3s0.4,0.1,0.6,0.1c0.3,0,0.7-0.1,1.1-0.3c0.4-0.2,0.8-0.4,1.2-0.8
			c0.4-0.3,0.8-0.7,1.2-1.1c0.4-0.4,0.7-0.9,1-1.4s0.5-1,0.7-1.5C249.9,390.2,250,389.7,250,389.2z"/>
		<path class="st0" d="M275.5,390.3c0,0.2-0.1,0.4-0.2,0.6c-0.1,0.3-0.3,0.6-0.6,0.9c-0.3,0.3-0.5,0.7-0.9,1.1s-0.7,0.8-1,1.2
			c-0.4,0.4-0.9,0.9-1.3,1.3c-0.5,0.4-1,0.8-1.5,1.2c-1,0.8-2,1.2-2.8,1.2c-0.9,0-1.6-0.3-2.1-0.9s-0.8-1.4-1-2.2
			c-0.2-0.9-0.3-1.7-0.3-2.7c0-0.4,0-1,0.1-1.8c0-0.4,0.1-0.8,0.1-1c0-0.2,0.1-0.5,0.1-0.7c0.1-0.4,0.3-0.7,0.7-0.9
			c0.3-0.3,0.7-0.4,1.1-0.4c0.2,0,0.3,0.2,0.3,0.6c0,0.3,0,0.5-0.1,0.9s-0.1,0.6-0.2,1c-0.1,0.6-0.2,1.1-0.2,1.6s-0.1,0.9-0.1,1.2
			c0,0.8,0.1,1.5,0.3,2.3c0.2,0.8,0.6,1.2,1.1,1.2c0.6,0,1.2-0.2,1.9-0.6c0.4-0.2,0.7-0.4,1.1-0.7c0.4-0.3,0.7-0.5,1.1-0.9
			c0.4-0.3,0.7-0.6,1.1-0.9c0.3-0.3,0.7-0.6,1-1s0.6-0.7,0.9-0.9c0.3-0.3,0.5-0.6,0.7-0.8c0,0,0,0,0-0.1c0,0,0-0.1,0.1-0.1
			c0,0,0-0.1,0.1-0.1c0,0,0,0,0.1,0s0.2,0.1,0.2,0.2C275.5,390.1,275.5,390.2,275.5,390.3z M268.2,381.2c0,0.5-0.1,0.9-0.4,1.2
			c-0.2,0.3-0.6,0.5-1.1,0.5c-0.3,0-0.6,0-1-0.1c-0.4-0.1-0.5-0.2-0.5-0.4c0-0.4,0.1-0.7,0.3-1c0.2-0.3,0.5-0.6,0.8-0.8
			c0.3-0.1,0.4-0.2,0.5-0.2c0.4,0,0.8,0.1,1,0.2C268.1,380.6,268.2,380.8,268.2,381.2z"/>
		<path class="st0" d="M284.1,387.3c0,0.2,0,0.4-0.1,0.5c-0.1,0.1-0.2,0.2-0.3,0.3c-0.1,0.1-0.3,0.1-0.4,0.1s-0.3,0-0.4,0
			c-0.6,0-1.3,0.1-1.9,0.2c-0.7,0.1-1.3,0.1-1.8,0.2c-0.5,0.1-1,0.1-1.3,0.2s-0.5,0.1-0.5,0.1c-0.1,0.2-0.1,0.5-0.2,0.8
			c-0.1,0.3-0.2,0.7-0.3,1c-0.1,0.4-0.2,0.8-0.3,1.1c-0.1,0.4-0.2,0.8-0.2,1.1c-0.1,0.4-0.1,0.7-0.2,1c0,0.3-0.1,0.5-0.1,0.7
			c0,0.2,0,0.3,0,0.6s0.1,0.4,0.2,0.6c0.1,0.2,0.2,0.4,0.4,0.5c0.2,0.1,0.4,0.2,0.7,0.2c0.2,0,0.3,0,0.6-0.1
			c0.3-0.1,0.5-0.2,0.7-0.4c0.2-0.2,0.6-0.4,0.8-0.6c0.3-0.2,0.6-0.5,0.9-0.8c0.1-0.1,0.3-0.3,0.5-0.4s0.4-0.2,0.5-0.2
			c0.3,0,0.4,0.1,0.4,0.4c0,0.1,0,0.3-0.1,0.4c0,0.1-0.1,0.2-0.2,0.4c-0.1,0.1-0.2,0.2-0.3,0.4c-0.1,0.1-0.2,0.3-0.3,0.4
			c-0.1,0.1-0.2,0.2-0.3,0.4c-0.1,0.2-0.3,0.3-0.5,0.5c-0.2,0.2-0.4,0.4-0.7,0.5c-0.3,0.2-0.5,0.3-0.8,0.5c-0.3,0.1-0.6,0.3-0.9,0.4
			s-0.6,0.1-0.9,0.1c-0.4,0-0.8-0.1-1.1-0.2s-0.5-0.3-0.7-0.5c-0.2-0.2-0.3-0.4-0.4-0.7c-0.1-0.3-0.2-0.5-0.2-0.8
			c0-0.3-0.1-0.5-0.1-0.8c0-0.3,0-0.5,0-0.7c0-0.2,0-0.5,0.1-0.8c0-0.3,0.1-0.7,0.2-1c0.1-0.4,0.1-0.7,0.2-1.1s0.2-0.7,0.2-1.1
			s0.1-0.6,0.2-0.9c0-0.3,0.1-0.5,0.1-0.7c0-0.1,0-0.2-0.1-0.2s-0.2,0-0.4,0s-0.3,0-0.5,0.1c-0.2,0.1-0.4,0-0.6,0
			c-0.1,0-0.3-0.1-0.4-0.1s-0.2-0.1-0.3-0.2c-0.1-0.1-0.2-0.2-0.2-0.3c-0.1-0.1-0.1-0.3-0.1-0.5s0.1-0.4,0.2-0.5s0.3-0.1,0.4-0.1
			h2.6c0,0,0.1-0.1,0.2-0.2s0.1-0.3,0.2-0.5c0.1-0.2,0.2-0.4,0.3-0.7c0.1-0.3,0.2-0.5,0.3-0.8c0.1-0.3,0.2-0.6,0.3-0.8
			s0.2-0.6,0.3-0.8c0.1-0.4,0.3-0.7,0.4-0.9c0.1-0.2,0.4-0.3,0.7-0.3c0.2,0,0.3,0,0.4,0.1s0.2,0.1,0.3,0.2c0.1,0.1,0.1,0.2,0.1,0.3
			s0,0.2,0,0.3c0,0,0,0.1-0.1,0.3c0,0.1-0.1,0.3-0.2,0.5c-0.1,0.2-0.2,0.5-0.3,0.7c-0.1,0.2-0.2,0.5-0.3,0.8
			c-0.1,0.3-0.2,0.5-0.3,0.8c-0.1,0.3-0.2,0.5-0.2,0.7c0.7,0,1.3-0.1,1.8-0.1s0.9-0.1,1.2-0.1c0.3,0,0.6-0.1,0.9-0.1s0.5,0,0.7,0
			c0.3,0,0.6,0,0.8,0s0.4,0.1,0.5,0.1c0.1,0.1,0.2,0.1,0.2,0.2C284,387.1,284.1,387.2,284.1,387.3z"/>
		<path class="st0" d="M287.6,396.7c0,0.2-0.1,0.4-0.2,0.6c-0.6,0.6-1.1,0.9-1.7,0.9c-0.2,0-0.3,0-0.5-0.1s-0.3-0.1-0.4-0.2
			s-0.2-0.2-0.3-0.4s-0.1-0.4-0.1-0.5c0-0.3,0.2-0.6,0.7-0.9c0.1-0.1,0.2-0.1,0.2-0.2s0.1-0.1,0.2-0.1s0.1-0.1,0.2-0.1s0.2,0,0.3,0
			c0,0,0.1,0,0.2,0s0.1,0.1,0.2,0.1s0.1,0.1,0.2,0.1s0.1,0.1,0.2,0.1C287.3,396.1,287.6,396.3,287.6,396.7z M294.4,384.6
			c0,0.5,0,0.9-0.1,1.3s-0.2,0.8-0.3,1.1c-0.2,0.3-0.3,0.6-0.6,0.8c-0.2,0.2-0.5,0.5-0.7,0.6c-0.6,0.4-1.2,0.7-2,0.9
			c-0.4,0.1-0.8,0.3-1.2,0.4c-0.4,0.1-0.8,0.3-1.2,0.4c-0.2,0.6-0.4,1.3-0.6,2.1c-0.1,0.4-0.2,0.6-0.5,0.7c-0.2,0.1-0.6,0.2-1,0.2
			c-0.1,0-0.1-0.2-0.2-0.5c0-0.3-0.1-0.5-0.1-0.6c0-0.3,0.1-0.6,0.2-0.9c0.1-0.3,0.3-0.6,0.5-1.1c0.1-0.2,0.2-0.4,0.3-0.5
			c0.1-0.1,0.1-0.2,0.1-0.3c0.4-0.3,0.8-0.6,1.3-0.8c0.4-0.2,1-0.5,1.8-0.7c0.4-0.1,0.7-0.3,1-0.4c0.3-0.1,0.5-0.2,0.6-0.3
			c0.2-0.1,0.3-0.2,0.5-0.4c0.2-0.2,0.3-0.3,0.4-0.5c0.1-0.2,0.2-0.4,0.2-0.6c0-0.2,0.1-0.4,0.1-0.6c0-0.3,0-0.6-0.1-1
			s-0.2-0.7-0.3-0.9c-0.1-0.2-0.2-0.3-0.3-0.4c-0.2-0.1-0.3-0.2-0.5-0.3s-0.4-0.1-0.6-0.2c-0.2,0-0.4-0.1-0.6-0.1
			c-0.6,0-1.1,0-1.4,0.1c-0.4,0.1-0.7,0.3-1,0.6c-0.1,0.1-0.2,0.2-0.2,0.4c0,0.2-0.1,0.3-0.2,0.4c-0.1,0.1-0.2,0.2-0.6,0.3
			c-0.2,0-0.4,0.1-0.6,0.1c-0.4,0-0.6-0.2-0.6-0.7c0-0.4,0.2-0.8,0.6-1.3s1-0.9,1.5-1.2c0.6-0.3,1.1-0.5,1.4-0.5c0.1,0,0.2,0,0.4,0
			s0.4,0,0.6,0s0.4,0,0.6,0s0.3,0,0.4,0c0.2,0,0.4,0,0.7,0.1c0.3,0.1,0.5,0.2,0.7,0.3c0.4,0.3,0.7,0.5,1,0.8
			c0.2,0.2,0.4,0.5,0.5,0.8c0.1,0.3,0.2,0.6,0.2,0.9C294.4,383.7,294.4,384.1,294.4,384.6z"/>
	</g>
</g>
</svg>
